<svg width="16" height="14" viewBox="0 0 16 14" fill="none" xmlns="http://www.w3.org/2000/svg">
<path id="Vector" d="M9.7101 7.27996L15.3274 2.32744C15.4287 2.24113 15.5096 2.13788 15.5652 2.02373C15.6208 1.90957 15.6501 1.78679 15.6513 1.66255C15.6526 1.53832 15.6257 1.41511 15.5723 1.30012C15.519 1.18512 15.4402 1.08065 15.3405 0.992802C15.2409 0.904949 15.1224 0.835473 14.992 0.788426C14.8615 0.74138 14.7218 0.717706 14.5809 0.718785C14.44 0.719865 14.3007 0.745677 14.1712 0.794714C14.0418 0.843752 13.9247 0.915034 13.8268 1.0044L8.20948 5.95691L2.5922 1.0044C2.39204 0.83396 2.12396 0.739649 1.8457 0.741781C1.56744 0.743912 1.30126 0.842316 1.1045 1.0158C0.90773 1.18928 0.796118 1.42396 0.7937 1.66929C0.791282 1.91462 0.898252 2.15097 1.09157 2.32744L6.70885 7.27996L1.09157 12.2325C0.990208 12.3188 0.909359 12.422 0.853739 12.5362C0.798119 12.6503 0.768843 12.7731 0.767618 12.8974C0.766394 13.0216 0.793245 13.1448 0.846607 13.2598C0.899968 13.3748 0.97877 13.4793 1.07842 13.5671C1.17806 13.655 1.29655 13.7244 1.42698 13.7715C1.5574 13.8185 1.69715 13.8422 1.83807 13.8411C1.97898 13.84 2.11824 13.8142 2.24772 13.7652C2.3772 13.7162 2.4943 13.6449 2.5922 13.5555L8.20948 8.603L13.8268 13.5555C14.0269 13.726 14.295 13.8203 14.5732 13.8181C14.8515 13.816 15.1177 13.7176 15.3145 13.5441C15.5112 13.3706 15.6228 13.136 15.6253 12.8906C15.6277 12.6453 15.5207 12.4089 15.3274 12.2325L9.7101 7.27996Z" fill="#9CA3AF"/>
</svg>
