<svg xmlns="http://www.w3.org/2000/svg" width="16" height="21" viewBox="0 0 16 21" fill="none">
<path d="M14.1796 0.50001H9.24986C8.87895 0.498998 8.51154 0.576166 8.1689 0.727047C7.82625 0.877928 7.51517 1.09952 7.25368 1.37901L6.58828 2.08401C6.50078 2.17698 6.43137 2.28736 6.38401 2.40884C6.33665 2.53032 6.31228 2.66052 6.31228 2.79201C6.31228 3.05756 6.41156 3.31224 6.58828 3.50001C6.76501 3.68778 7.00469 3.79327 7.25462 3.79327C7.50454 3.79327 7.74423 3.68778 7.92095 3.50001L8.58446 2.79401C8.76129 2.60692 9.00032 2.50131 9.24986 2.50001H14.1175L14.1796 14.5C13.93 14.5 13.6906 14.6054 13.5141 14.7929C13.3376 14.9804 13.2384 15.2348 13.2384 15.5C13.2384 15.7652 13.3376 16.0196 13.5141 16.2071C13.6906 16.3946 13.93 16.5 14.1796 16.5C14.6704 16.4905 15.1376 16.2747 15.4788 15.8998C15.82 15.5249 16.0073 15.0215 15.9998 14.5V2.50001C16.0073 1.97854 15.82 1.47516 15.4788 1.10025C15.1376 0.725333 14.6704 0.509479 14.1796 0.50001Z" fill="#1F2A37"/>
<path d="M10.415 4.50001H5.4862C5.11512 4.49875 4.7475 4.57581 4.40467 4.7267C4.06184 4.87759 3.75062 5.09931 3.48908 5.37901L0.827506 8.20701C0.564271 8.48491 0.355595 8.81559 0.213583 9.17985C0.0715723 9.54412 -0.000946287 9.93472 0.000234821 10.329V18.5C-0.00757258 19.0214 0.179582 19.5248 0.520639 19.8997C0.861695 20.2746 1.3288 20.4905 1.81948 20.5H10.415C10.9058 20.4905 11.373 20.2747 11.7142 19.8998C12.0554 19.5248 12.2427 19.0215 12.2352 18.5V6.50001C12.2427 5.97854 12.0554 5.47516 11.7142 5.10024C11.373 4.72533 10.9058 4.50948 10.415 4.50001ZM4.70598 6.91401V9.5H2.27217L4.70598 6.91401ZM1.88253 18.5V11.5H4.70598C5.2052 11.5 5.68397 11.2893 6.03697 10.9142C6.38997 10.5391 6.58828 10.0304 6.58828 9.5V6.49401L10.3472 6.47401C10.3519 6.48173 10.3539 6.49091 10.3529 6.50001L10.415 18.5H1.88253Z" fill="#1F2A37"/>
</svg>