<svg width="71" height="68" viewBox="0 0 71 68" fill="none" xmlns="http://www.w3.org/2000/svg">
<g id="file icon">
<rect id="Rectangle 2496" x="1.17432" y="1.32422" width="69.0435" height="65.2456" rx="5.5" fill="white" stroke="#F5F5F5"/>
<g id="XSL">
<g id="Group" opacity="0.3">
<path id="Vector" opacity="0.3" d="M52.5666 18.9995C50.8781 18.9982 49.2592 18.4744 48.0652 17.543C46.8712 16.6116 46.1997 15.3487 46.1981 14.0315V7.13379H17.7405C15.5362 7.13379 13.4222 7.81688 11.8635 9.03275C10.3049 10.2486 9.4292 11.8976 9.4292 13.6171V52.7005C9.4292 54.42 10.3049 56.0691 11.8635 57.285C13.4222 58.5008 15.5362 59.1839 17.7405 59.1839H51.8995C54.1037 59.1839 56.2178 58.5008 57.7764 57.285C59.3351 56.0691 60.2107 54.42 60.2107 52.7005V18.9995H52.5666Z" fill="#16BDCA"/>
</g>
<path id="Vector_2" d="M60.2114 18.9995H52.5673C50.8788 18.9982 49.2598 18.4744 48.0659 17.543C46.8719 16.6116 46.2004 15.3487 46.1987 14.0315V7.13379L60.2114 18.9995Z" fill="#16BDCA"/>
<path id="Vector_3" d="M46.1484 43.4759H23.5033C21.5421 43.4759 19.9453 41.9532 19.9453 40.0788V27.2638C19.9453 25.3918 21.5421 23.8691 23.5033 23.8691H46.1576C48.1158 23.8691 49.7125 25.3918 49.7125 27.2638V40.0788C49.7033 41.9532 48.1065 43.4759 46.1484 43.4759ZM23.5033 25.6038C22.5428 25.6038 21.7645 26.3483 21.7645 27.2638V40.0788C21.7645 40.9943 22.5428 41.7388 23.5033 41.7388H46.1576C47.1151 41.7388 47.8934 40.9943 47.8934 40.0788V27.2638C47.8934 26.3483 47.1151 25.6038 46.1576 25.6038H23.5033Z" fill="#16BDCA"/>
<path id="Vector_4" d="M48.7957 35.7578H20.8477V37.4949H48.7957V35.7578Z" fill="#16BDCA"/>
<path id="Vector_5" d="M48.7957 29.8027H20.8477V31.5398H48.7957V29.8027Z" fill="#16BDCA"/>
<path id="Vector_6" d="M41.636 24.7373H39.4092V42.6069H41.636V24.7373Z" fill="#16BDCA"/>
<path id="Vector_7" d="M30.2297 24.7373H28.0029V42.6069H30.2297V24.7373Z" fill="#16BDCA"/>
</g>
</g>
</svg>
