<svg width="24" height="24" viewBox="0 0 24 24" fill="none" xmlns="http://www.w3.org/2000/svg">
<g id="file">
<g id="Vector">
<path d="M9.00009 7V2.13C8.51214 2.26498 8.06697 2.52286 7.70712 2.879L4.87921 5.707C4.52379 6.06739 4.26603 6.51238 4.13023 7H9.00009Z" fill="#9CA3AF"/>
<path d="M18.0658 2H11V7C11 7.53043 10.7893 8.03914 10.4143 8.41421C10.0392 8.78929 9.5305 9 9.00009 9H4.00023V20C3.99221 20.5215 4.19128 21.0248 4.55381 21.3998C4.91634 21.7747 5.41274 21.9905 5.93418 22H18.0658C18.5873 21.9905 19.0837 21.7747 19.4462 21.3998C19.8087 21.0248 20.0078 20.5215 19.9998 20V4C20.0078 3.47853 19.8087 2.97515 19.4462 2.60024C19.0837 2.22532 18.5873 2.00947 18.0658 2Z" fill="#9CA3AF"/>
</g>
</g>
</svg>
