<svg xmlns="http://www.w3.org/2000/svg" width="176" height="95" viewBox="0 0 176 95" fill="none">
  <path d="M133.852 38.4188H125.247M140.509 30.0508H122.431H140.509ZM147.876 30.0508H145.538H147.876Z" stroke="#75A4FE" stroke-width="2.5" stroke-linecap="round" stroke-linejoin="round"/>
  <path fill-rule="evenodd" clip-rule="evenodd" d="M168.4 1C172.469 1 175.768 4.37203 175.768 8.53165C175.768 12.6913 172.469 16.0633 168.4 16.0633H126.3C130.369 16.0633 133.667 19.4353 133.667 23.5949C133.667 27.7546 130.369 31.1266 126.3 31.1266H149.455C153.524 31.1266 156.822 34.4986 156.822 38.6582C156.822 42.8178 153.524 46.1899 149.455 46.1899H138.747C133.617 46.1899 129.458 49.5619 129.458 53.7215C129.458 56.4946 131.562 59.0051 135.773 61.2532C139.841 61.2532 143.14 64.6252 143.14 68.7848C143.14 72.9444 139.841 76.3165 135.773 76.3165H48.415C44.346 76.3165 41.0475 72.9444 41.0475 68.7848C41.0475 64.6252 44.346 61.2532 48.415 61.2532H7.3675C3.29854 61.2532 0 57.8811 0 53.7215C0 49.5619 3.29854 46.1899 7.3675 46.1899H49.4675C53.5365 46.1899 56.835 42.8178 56.835 38.6582C56.835 34.4986 53.5365 31.1266 49.4675 31.1266H23.155C19.086 31.1266 15.7875 27.7546 15.7875 23.5949C15.7875 19.4353 19.086 16.0633 23.155 16.0633H65.255C61.186 16.0633 57.8875 12.6913 57.8875 8.53165C57.8875 4.37203 61.186 1 65.255 1H168.4ZM168.4 31.1266C172.469 31.1266 175.768 34.4986 175.768 38.6582C175.768 42.8178 172.469 46.1899 168.4 46.1899C164.331 46.1899 161.033 42.8178 161.033 38.6582C161.033 34.4986 164.331 31.1266 168.4 31.1266Z" fill="#F3F7FF"/>
  <path d="M77.3589 74.1648C96.8317 74.1648 112.618 58.0272 112.618 38.1205C112.618 18.2138 96.8317 2.07617 77.3589 2.07617C57.886 2.07617 42.1001 18.2138 42.1001 38.1205C42.1001 58.0272 57.886 74.1648 77.3589 74.1648Z" fill="#F3F7FF" stroke="#1F64E7" stroke-width="2.5"/>
  <path fill-rule="evenodd" clip-rule="evenodd" d="M71.7093 66.0887C73.5604 66.438 75.4436 66.6195 77.359 66.6332C92.7629 66.6332 105.25 53.8677 105.25 38.1206C105.25 22.3735 92.7629 9.60791 77.359 9.60791C73.402 9.60791 69.6374 10.4503 66.2276 11.9692C60.302 14.6088 55.4476 19.2914 52.5158 25.1466C50.5671 29.0384 49.4678 33.4483 49.4678 38.1206C49.4678 42.3598 50.3728 46.383 51.996 49.9992C53.1549 52.5809 54.6799 54.9552 56.503 57.0525" fill="white"/>
  <path d="M71.7093 66.0887C73.5604 66.438 75.4436 66.6195 77.359 66.6332C92.7629 66.6332 105.25 53.8677 105.25 38.1206C105.25 22.3735 92.7629 9.60791 77.359 9.60791C73.402 9.60791 69.6374 10.4503 66.2276 11.9692C60.302 14.6088 55.4476 19.2914 52.5158 25.1466C50.5671 29.0384 49.4678 33.4483 49.4678 38.1206C49.4678 42.3598 50.3728 46.383 51.996 49.9992C53.1549 52.5809 54.6799 54.9552 56.503 57.0525" stroke="#1F64E7" stroke-width="2.5" stroke-linecap="round"/>
  <path d="M59.7793 60.2578C62.0402 62.1364 64.5944 63.6603 67.3609 64.7466" stroke="#1F64E7" stroke-width="2.5" stroke-linecap="round"/>
  <path d="M106.303 66.6333L112.618 73.089" stroke="#1F64E7" stroke-width="2.5"/>
  <path fill-rule="evenodd" clip-rule="evenodd" d="M111.597 72.0454C109.605 74.0819 109.605 77.3836 111.597 79.4201L123.264 91.3473C125.256 93.3838 128.486 93.3838 130.478 91.3473C132.47 89.3109 132.47 86.0091 130.478 83.9726L118.811 72.0454C116.819 70.0089 113.589 70.0089 111.597 72.0454Z" fill="#E8F0FE" stroke="#1F64E7" stroke-width="2.5"/>
  <path d="M116.828 74.1646L128.405 86" stroke="white" stroke-width="2.5" stroke-linecap="round"/>
  <path fill-rule="evenodd" clip-rule="evenodd" d="M70.5174 25.7472C70.5174 38.2261 80.413 48.3422 92.6199 48.3422C95.0179 48.3422 97.3266 47.9518 99.4887 47.2298C95.9597 56.1827 87.3811 62.5024 77.3587 62.5024C64.1865 62.5024 53.5083 51.5863 53.5083 38.1207C53.5083 25.9189 62.276 15.8106 73.7223 14.0205C71.6888 17.4401 70.5174 21.4538 70.5174 25.7472Z" fill="#E8F0FE"/>
  <path d="M77.8852 18.2153C76.5449 18.2153 75.2355 18.3501 73.9691 18.6071M70.1438 19.8035C62.9438 22.8966 57.8877 30.1739 57.8877 38.6584" stroke="#75A4FE" stroke-width="2.5" stroke-linecap="round"/>
  <path d="M133.852 38.4188H125.247M140.509 30.0508H122.431H140.509ZM147.876 30.0508H145.538H147.876Z" stroke="#75A4FE" stroke-width="2.5" stroke-linecap="round" stroke-linejoin="round"/>
  <path d="M39.1272 62.0895H30.5222M34.206 52.6455H16.1285H34.206ZM9.99847 52.6455H5.55566H9.99847Z" stroke="#75A4FE" stroke-width="2.5" stroke-linecap="round" stroke-linejoin="round"/>
</svg>