  <svg
            xmlns="http://www.w3.org/2000/svg"
            width="41"
            height="40"
            viewBox="0 0 41 40"
            fill="none"
          >
            <path
              d="M28.3452 10.6725L21.6785 3.83519C21.5237 3.676 21.3398 3.54971 21.1373 3.46354C20.9348 3.37736 20.7177 3.33301 20.4985 3.33301C20.2793 3.33301 20.0622 3.37736 19.8597 3.46354C19.6572 3.54971 19.4733 3.676 19.3185 3.83519L12.6518 10.6725C12.3393 10.9935 12.1639 11.4286 12.1642 11.8822C12.1645 12.3358 12.3405 12.7707 12.6535 13.0912C12.9665 13.4117 13.3907 13.5916 13.833 13.5913C14.2753 13.591 14.6993 13.4105 15.0118 13.0895L18.8335 9.17002V23.8463C18.8335 24.2997 19.0091 24.7345 19.3217 25.055C19.6342 25.3756 20.0581 25.5557 20.5002 25.5557C20.9422 25.5557 21.3661 25.3756 21.6787 25.055C21.9912 24.7345 22.1668 24.2997 22.1668 23.8463V9.17002L25.9885 13.0895C26.3028 13.4009 26.7238 13.5732 27.1608 13.5693C27.5978 13.5654 28.0158 13.3856 28.3249 13.0687C28.6339 12.7518 28.8092 12.323 28.813 11.8749C28.8168 11.4267 28.6488 10.9949 28.3452 10.6725Z"
              fill="#9CA3AF"
            />
            <path
              d="M33.8335 22.9917H25.5002V23.8463C25.5002 25.2064 24.9734 26.5107 24.0357 27.4724C23.098 28.4341 21.8262 28.9743 20.5002 28.9743C19.1741 28.9743 17.9023 28.4341 16.9646 27.4724C16.0269 26.5107 15.5002 25.2064 15.5002 23.8463V22.9917H7.16683C6.28277 22.9917 5.43493 23.3519 4.80981 23.993C4.18469 24.6341 3.8335 25.5037 3.8335 26.4103V33.2477C3.8335 34.1544 4.18469 35.0239 4.80981 35.665C5.43493 36.3062 6.28277 36.6663 7.16683 36.6663H33.8335C34.7176 36.6663 35.5654 36.3062 36.1905 35.665C36.8156 35.0239 37.1668 34.1544 37.1668 33.2477V26.4103C37.1668 25.5037 36.8156 24.6341 36.1905 23.993C35.5654 23.3519 34.7176 22.9917 33.8335 22.9917ZM29.6668 33.2477C29.1724 33.2477 28.689 33.0973 28.2779 32.8156C27.8668 32.5338 27.5464 32.1334 27.3571 31.6649C27.1679 31.1964 27.1184 30.6808 27.2149 30.1835C27.3113 29.6861 27.5494 29.2292 27.8991 28.8707C28.2487 28.5121 28.6942 28.2679 29.1791 28.1689C29.6641 28.07 30.1667 28.1208 30.6235 28.3149C31.0804 28.5089 31.4708 28.8376 31.7455 29.2592C32.0202 29.6808 32.1668 30.1766 32.1668 30.6837C32.1668 31.3637 31.9034 32.0159 31.4346 32.4967C30.9658 32.9775 30.3299 33.2477 29.6668 33.2477Z"
              fill="#9CA3AF"
            />
          </svg>
